# xmcd
#
# Track frame offsets: 
#        150
#        23979
#        42925
#        60913
#        73911
#        88342
#        110461
#        125137
#        141336
#        167966
#        191574
#        211388
#        226243
#        237386
#        253619
#        272776
#        284990
#        295977
#
# Disc length: 4604 seconds
#
# Revision: 0
# Processed by: cddbd v1.5.2PL0 Copyright (c) Steve Scherf et al.
# Submitted via: ExactAudioCopy v0.99pb5
#
DISCID=2711fa12
DTITLE=Various Artist - Shivering Sands And Scavenging Birds. Songs and Tunes F
DTITLE=rom The Leigh Folk Festival 09
DYEAR=2009
DGENRE=Folk
TTITLE0=Faustus - The Betrayed Maiden
TTITLE1=Emily Portman - Tonguetied
TTITLE2=Smoke Fairies - Troubles
TTITLE3=Palinka - Fekete-Piros 
TTITLE4=Kelli Ali - Water Under The Bridge
TTITLE5=Vicki Swan and Johnny Dyer - In The Kitchen
TTITLE6=The Straw Bear Band - Maverick You Are
TTITLE7=Rachel Harrington - Karen Kane
TTITLE8=Shone Kipling and Damian O'Kane - Fishing With Calum - Broken Po
TTITLE8=aches Eggs - Willy Coleman's
TTITLE9=The Owl Service - Standing On The Shore
TTITLE10=Roshi, featuring Pars Radio - Dohktar E Boyerahmadi
TTITLE11=Goldmaster All Stars - Another Day
TTITLE12=The Kittiwakes - Lofoten Calling
TTITLE13=Jason Steel - The Bonny Balck Hare
TTITLE14=Isnaj Dui - Saying Goodbye
TTITLE15=Nancy Wallace - Ploughman Lads
TTITLE16=Kiti Theobald - Go No More A-Rushing
TTITLE17=TRevor Watts and Peter Knight - A Seagull Or Two
EXTD=
EXTT0=
EXTT1=
EXTT2=
EXTT3=
EXTT4=
EXTT5=
EXTT6=
EXTT7=
EXTT8=
EXTT9=
EXTT10=
EXTT11=
EXTT12=
EXTT13=
EXTT14=
EXTT15=
EXTT16=
EXTT17=
PLAYORDER=
